<?xml version="1.0" encoding="utf-8"?>
<!-- Generator: Adobe Illustrator 23.0.2, SVG Export Plug-In . SVG Version: 6.00 Build 0)  -->
<svg version="1.1" id="Camada_1" xmlns="http://www.w3.org/2000/svg" xmlns:xlink="http://www.w3.org/1999/xlink" x="0px" y="0px"
	 viewBox="130 233 580 130" style="enable-background:new 0 0 841.89 595.28;" xml:space="preserve">
<style type="text/css">
	.st0{clip-path:url(#SVGID_2_);fill:url(#SVGID_3_);}
	.st1{fill-rule:evenodd;clip-rule:evenodd;fill:#ECC400;}
	.st2{clip-path:url(#SVGID_5_);fill:url(#SVGID_6_);}
	.st3{fill:#fff;}
</style>
<g>
	<defs>
		<path id="SVGID_1_" d="M137.77,269.06c0,0,45.35-26.18,49.5-28.58l39.32,22.7l-10.18,5.88l-24.06-13.89v34.53l-5.09,2.94
			l-5.09-2.94v-34.53l-34.23,19.76L137.77,269.06z"/>
	</defs>
	<clipPath id="SVGID_2_">
		<use xlink:href="#SVGID_1_"  style="overflow:visible;"/>
	</clipPath>
	
		<linearGradient id="SVGID_3_" gradientUnits="userSpaceOnUse" x1="0.15" y1="594.7756" x2="0.85" y2="594.7756" gradientTransform="matrix(88.8225 0 0 52.1535 137.7692 -30753.0781)">
		<stop  offset="0" style="stop-color:#ECC400"/>
		<stop  offset="0.43" style="stop-color:#ECC400"/>
		<stop  offset="0.68" style="stop-color:#D78A00"/>
		<stop  offset="1" style="stop-color:#CC6406"/>
	</linearGradient>
	<rect x="137.77" y="240.48" class="st0" width="88.82" height="52.15"/>
</g>
<polygon class="st1" points="165.93,309.96 147.95,320.34 137.77,314.46 155.81,304.05 "/>
<g>
	<defs>
		<path id="SVGID_4_" d="M187.27,309.39l-49.5-28.58v-11.75l49.5,28.58l49.5-28.58v57.16c-16.5,9.53-33,19.05-49.5,28.58
			c-16.5-9.53-33-19.05-49.5-28.58v-11.75l49.5,28.58l39.32-22.7l0-33.65L187.27,309.39z"/>
	</defs>
	<clipPath id="SVGID_5_">
		<use xlink:href="#SVGID_4_"  style="overflow:visible;"/>
	</clipPath>
	
		<linearGradient id="SVGID_6_" gradientUnits="userSpaceOnUse" x1="0.1" y1="594.7756" x2="0.9" y2="594.7756" gradientTransform="matrix(-99 0 0 -85.7367 236.7692 51306.0156)">
		<stop  offset="0" style="stop-color:#ECC400"/>
		<stop  offset="0.43" style="stop-color:#ECC400"/>
		<stop  offset="0.68" style="stop-color:#D78A00"/>
		<stop  offset="1" style="stop-color:#CC6406"/>
	</linearGradient>
	<rect x="137.77" y="269.06" class="st2" width="99" height="85.74"/>
</g>
<path class="st3" d="M336.84,316.34c0-0.32-0.12-0.46-0.44-0.46h-1.44c-0.22,0-0.34,0.05-0.42,0.22l-4.15,9.89
	c-0.17,0.42-0.51,1.34-0.54,1.44c-0.02-0.1-0.34-1.05-0.51-1.47l-4.23-9.82c-0.07-0.17-0.2-0.27-0.42-0.27h-1.37
	c-0.32,0-0.44,0.15-0.44,0.46v15.68c0,0.32,0.12,0.46,0.44,0.46h1.37c0.32,0,0.44-0.15,0.44-0.46v-11.16
	c0.02,0.07,0.22,0.93,0.46,1.47l3.03,7.16c0.12,0.29,0.27,0.49,0.59,0.49h1.27c0.29,0,0.49-0.17,0.61-0.49l2.83-6.86
	c0.22-0.56,0.54-1.69,0.59-1.81v11.21c0,0.32,0.12,0.46,0.44,0.46h1.44c0.32,0,0.44-0.15,0.44-0.46V316.34z"/>
<path class="st3" d="M364.73,328.53c0,1.32-0.98,2.13-3.18,2.13c-2.17,0-3.15-0.81-3.15-2.13v-8.7c0-1.32,0.98-2.13,3.15-2.13
	c2.2,0,3.18,0.81,3.18,2.13V328.53z M356.01,328.92c0,2,1.37,3.76,5.55,3.76c4.2,0,5.57-1.76,5.57-3.76v-9.48
	c0-2-1.37-3.76-5.57-3.76c-4.18,0-5.55,1.76-5.55,3.76V328.92z"/>
<path class="st3" d="M391.87,317.9c2.2,0,3.18,0.81,3.18,2.13v8.31c0,1.32-0.98,2.13-3.18,2.13h-3.18V317.9H391.87z M391.87,332.49
	c4.18,0,5.57-1.76,5.57-3.76v-9.09c0-2-1.39-3.76-5.57-3.76h-5.11c-0.32,0-0.44,0.15-0.44,0.49V332c0,0.32,0.1,0.49,0.39,0.49
	H391.87z"/>
<path class="st3" d="M425.71,332.49c0.32,0,0.46-0.12,0.46-0.46v-1.12c0-0.34-0.15-0.44-0.46-0.44h-6.69v-5.64H425
	c0.34,0,0.49-0.15,0.49-0.46v-1.05c0-0.34-0.15-0.46-0.49-0.46h-5.98v-4.93h6.42c0.32,0,0.46-0.12,0.46-0.46v-1.1
	c0-0.34-0.15-0.46-0.46-0.46h-8.35c-0.32,0-0.44,0.15-0.44,0.49V332c0,0.34,0.12,0.49,0.44,0.49H425.71z"/>
<path class="st3" d="M447.18,316.36c0-0.34-0.12-0.49-0.44-0.49h-1.49c-0.34,0-0.46,0.15-0.46,0.49V332c0,0.32,0.12,0.49,0.39,0.49
	h8.26c0.32,0,0.46-0.12,0.46-0.46v-1.12c0-0.34-0.15-0.44-0.46-0.44h-6.25V316.36z"/>
<path class="st3" d="M478.64,326.33h-4.1l1.39-4.49c0.32-1.05,0.63-3.3,0.68-3.52c0.02,0.27,0.37,2.66,0.66,3.57L478.64,326.33z
	 M475.9,315.88c-0.32,0-0.49,0.15-0.59,0.46l-4.74,15.68c-0.1,0.29,0.02,0.46,0.34,0.46h1.42c0.32,0,0.46-0.17,0.54-0.46l1.12-3.79
	h5.15l1.15,3.79c0.07,0.29,0.22,0.46,0.54,0.46h1.54c0.34,0,0.46-0.17,0.37-0.46l-4.74-15.68c-0.1-0.32-0.27-0.46-0.59-0.46H475.9z"
	/>
<path class="st3" d="M505.75,324.18c-0.32,0-0.46,0.12-0.46,0.44v1.12c0,0.34,0.15,0.46,0.46,0.46h2.91v2.35
	c0,1.32-0.88,2.1-3.05,2.1c-2.2,0-3.03-0.81-3.03-2.13v-8.7c0-1.32,0.83-2.13,3.03-2.13c2.2,0,3.05,0.81,3.05,2.13v0.68
	c0,0.32,0.12,0.46,0.46,0.46h1.42c0.32,0,0.44-0.15,0.44-0.46v-1.07c0-2-1.2-3.76-5.4-3.76c-4.2,0-5.4,1.76-5.4,3.76v9.48
	c0,2,1.2,3.76,5.4,3.76c4.2,0,5.4-1.76,5.4-3.76v-4.3c0-0.32-0.15-0.44-0.46-0.44H505.75z"/>
<path class="st3" d="M538.98,332.49c0.32,0,0.46-0.12,0.46-0.46v-1.12c0-0.34-0.15-0.44-0.46-0.44h-6.69v-5.64h5.98
	c0.34,0,0.49-0.15,0.49-0.46v-1.05c0-0.34-0.15-0.46-0.49-0.46h-5.98v-4.93h6.42c0.32,0,0.46-0.12,0.46-0.46v-1.1
	c0-0.34-0.15-0.46-0.46-0.46h-8.35c-0.32,0-0.44,0.15-0.44,0.49V332c0,0.34,0.12,0.49,0.44,0.49H538.98z"/>
<path class="st3" d="M572,316.34c0-0.32-0.12-0.46-0.44-0.46h-1.44c-0.22,0-0.34,0.05-0.42,0.22l-4.15,9.89
	c-0.17,0.42-0.51,1.34-0.54,1.44c-0.02-0.1-0.34-1.05-0.51-1.47l-4.23-9.82c-0.07-0.17-0.2-0.27-0.42-0.27h-1.37
	c-0.32,0-0.44,0.15-0.44,0.46v15.68c0,0.32,0.12,0.46,0.44,0.46h1.37c0.32,0,0.44-0.15,0.44-0.46v-11.16
	c0.02,0.07,0.22,0.93,0.46,1.47l3.03,7.16c0.12,0.29,0.27,0.49,0.59,0.49h1.27c0.29,0,0.49-0.17,0.61-0.49l2.83-6.86
	c0.22-0.56,0.54-1.69,0.59-1.81v11.21c0,0.32,0.12,0.46,0.44,0.46h1.44c0.32,0,0.44-0.15,0.44-0.46V316.34z"/>
<path class="st3" d="M604.37,322.81c-0.34,0-0.46,0.12-0.46,0.46v1.05c0,0.34,0.12,0.46,0.46,0.46h2.05c2.2,0,2.86,0.71,2.86,2.05
	v1.78c0,1.32-0.78,2.08-2.91,2.08c-2.13,0-2.93-0.76-2.93-2.08v-0.32c0-0.32-0.12-0.46-0.44-0.46h-1.44c-0.32,0-0.44,0.15-0.44,0.46
	v0.64c0,2,1.17,3.74,5.28,3.74c4.08,0,5.23-1.69,5.23-3.66v-2.47c0-1.32-0.46-2.32-2.17-2.81c1.56-0.44,2-1.32,2-2.64v-1.76
	c0-1.98-1.03-3.66-5.08-3.66c-4.1,0-5.13,1.73-5.13,3.74v0.64c0,0.32,0.1,0.46,0.44,0.46h1.42c0.32,0,0.46-0.15,0.46-0.46v-0.32
	c0-1.32,0.66-2.08,2.78-2.08c2.1,0,2.74,0.76,2.74,2.08v1.03c0,1.34-0.66,2.05-2.83,2.05H604.37z"/>
<path class="st3" d="M636.2,317.9c2.2,0,3.18,0.81,3.18,2.13v8.31c0,1.32-0.98,2.13-3.18,2.13h-3.18V317.9H636.2z M636.2,332.49
	c4.18,0,5.57-1.76,5.57-3.76v-9.09c0-2-1.39-3.76-5.57-3.76h-5.11c-0.32,0-0.44,0.15-0.44,0.49V332c0,0.32,0.1,0.49,0.39,0.49H636.2
	z"/>
<polygon class="st3" points="281.06,275.66 281.06,280.02 273.31,280.02 273.31,302.72 268.29,302.72 268.29,280.02 260.54,280.02 
	260.54,275.66 "/>
<polygon class="st3" points="286.88,302.72 286.88,275.66 291.89,275.66 291.89,286.83 305.22,286.83 305.22,275.66 310.24,275.66 
	310.24,302.72 305.22,302.72 305.22,291.18 291.89,291.18 291.89,302.72 "/>
<polygon class="st3" points="321.67,302.72 316.53,302.72 328.01,275.66 333.4,275.66 345.13,302.72 339.74,302.72 336.65,295.34 
	327.67,295.34 329.39,290.99 334.84,290.99 330.58,280.83 "/>
<rect x="351.42" y="275.66" class="st3" width="5.01" height="27.05"/>
<path class="st3" d="M364.61,301.58v-4.54c2.71,1.01,5.78,1.51,9.19,1.51c4.15,0,6.22-1.38,6.22-4.16c0-2.02-1.27-3.03-3.82-3.03
	h-4.24c-5.54,0-8.3-2.52-8.3-7.57c0-5.55,3.94-8.32,11.82-8.32c3.03,0,5.89,0.45,8.61,1.32v4.54c-2.71-1.01-5.58-1.51-8.61-1.51
	c-4.54,0-6.81,1.32-6.81,3.97c0,2.02,1.1,3.03,3.29,3.03h4.24c5.89,0,8.83,2.52,8.83,7.57c0,5.68-3.74,8.51-11.23,8.51
	C370.38,302.91,367.32,302.47,364.61,301.58"/>
<path class="st3" d="M408.39,301.58v-4.54c2.71,1.01,5.78,1.51,9.19,1.51c4.15,0,6.22-1.38,6.22-4.16c0-2.02-1.27-3.03-3.82-3.03
	h-4.24c-5.54,0-8.3-2.52-8.3-7.57c0-5.55,3.94-8.32,11.82-8.32c3.03,0,5.89,0.45,8.61,1.32v4.54c-2.71-1.01-5.58-1.51-8.61-1.51
	c-4.54,0-6.81,1.32-6.81,3.97c0,2.02,1.1,3.03,3.29,3.03h4.24c5.89,0,8.83,2.52,8.83,7.57c0,5.68-3.74,8.51-11.23,8.51
	C414.17,302.91,411.1,302.47,408.39,301.58"/>
<polygon class="st3" points="438.84,302.72 433.69,302.72 445.18,275.66 450.57,275.66 462.29,302.72 456.9,302.72 453.81,295.34 
	444.83,295.34 446.55,290.99 452,290.99 447.75,280.83 "/>
<path class="st3" d="M490.14,301.58c-2.33,0.88-4.98,1.32-7.94,1.32c-9.71,0-14.57-4.69-14.57-14.09c0-8.89,4.86-13.34,14.57-13.34
	c2.96,0,5.61,0.45,7.94,1.32v4.54c-2.33-1.01-4.86-1.51-7.57-1.51c-6.49,0-9.74,3-9.74,8.99c0,6.5,3.25,9.74,9.74,9.74
	c2.71,0,5.24-0.5,7.57-1.51V301.58z"/>
<path class="st3" d="M497.85,302.68v-27.01h12.29c5.52,0,8.28,2.42,8.28,7.25c0,3.26-2.15,5.97-6.45,8.11l8.57,11.69h-6.31
	L506,290.93v-2.29c4.79-0.82,7.19-2.68,7.19-5.58c0-1.99-1.12-2.99-3.36-2.99h-6.87v22.6H497.85z"/>
<polygon class="st3" points="528.67,302.72 523.53,302.72 535.01,275.66 540.4,275.66 552.13,302.72 546.74,302.72 543.65,295.34 
	534.67,295.34 536.39,290.99 541.84,290.99 537.58,280.83 "/>
<polygon class="st3" points="558.42,302.72 558.42,275.66 563.62,275.66 572.79,296.19 581.78,275.66 586.79,275.66 586.79,302.72 
	582.15,302.72 582.15,283.88 574.81,302.72 570.54,302.72 563.05,283.88 563.05,302.72 "/>
<polygon class="st3" points="613.96,275.66 613.96,279.98 600.42,279.98 600.42,286.79 613.32,286.79 613.32,291.28 600.36,291.28 
	600.36,298.37 614.23,298.37 614.23,302.72 595.44,302.72 595.44,275.66 "/>
<polygon class="st3" points="621.84,302.72 621.84,275.66 626.85,275.66 641.13,295.38 641.13,275.66 645.96,275.66 645.96,302.72 
	640.94,302.72 626.66,282.59 626.66,302.72 "/>
<polygon class="st3" points="672.29,275.66 672.29,280.02 664.54,280.02 664.54,302.72 659.52,302.72 659.52,280.02 651.77,280.02 
	651.77,275.66 "/>
<path class="st3" d="M677.16,289.23c0-9.17,4.53-13.75,13.58-13.75c8.91,0,13.37,4.58,13.37,13.75c0,9.12-4.46,13.68-13.37,13.68
	C682.1,302.91,677.56,298.35,677.16,289.23 M682.37,289.12c0,6.29,2.79,9.43,8.38,9.43c5.44,0,8.17-3.14,8.17-9.43
	c0-6.19-2.72-9.29-8.17-9.29C685.16,279.83,682.37,282.93,682.37,289.12z"/>
</svg>
