<?xml version="1.0" encoding="utf-8"?>
<!-- Generator: Adobe Illustrator 23.0.2, SVG Export Plug-In . SVG Version: 6.00 Build 0)  -->
<svg version="1.1" id="Camada_1" xmlns="http://www.w3.org/2000/svg" xmlns:xlink="http://www.w3.org/1999/xlink" x="0px" y="0px"
	 viewBox="200 100 450 400.64" style="enable-background:new 0 0 841.89 595.28;" xml:space="preserve">
<style type="text/css">
	.st0{clip-path:url(#SVGID_2_);fill:url(#SVGID_3_);}
	.st1{fill-rule:evenodd;clip-rule:evenodd;fill:#ECC400;}
	.st2{clip-path:url(#SVGID_5_);fill:url(#SVGID_6_);}
	.st3{fill:#FFF;}
</style>
<g>
	<defs>
		<path id="SVGID_1_" d="M305.61,191.81c0,0,105.66-61,115.33-66.59l91.62,52.9l-23.71,13.69l-56.05-32.36v80.44l-11.86,6.85
			l-11.86-6.85v-80.44l-79.76,46.05L305.61,191.81z"/>
	</defs>
	<clipPath id="SVGID_2_">
		<use xlink:href="#SVGID_1_"  style="overflow:visible;"/>
	</clipPath>
	
		<linearGradient id="SVGID_3_" gradientUnits="userSpaceOnUse" x1="0.15" y1="594.7756" x2="0.85" y2="594.7756" gradientTransform="matrix(206.9512 0 0 121.5139 305.6128 -72087.5156)">
		<stop  offset="0" style="stop-color:#ECC400"/>
		<stop  offset="0.43" style="stop-color:#ECC400"/>
		<stop  offset="0.68" style="stop-color:#D78A00"/>
		<stop  offset="1" style="stop-color:#CC6406"/>
	</linearGradient>
	<rect x="305.61" y="125.22" class="st0" width="206.95" height="121.51"/>
</g>
<polygon class="st1" points="371.23,287.1 329.33,311.29 305.61,297.6 347.65,273.33 "/>
<g>
	<defs>
		<path id="SVGID_4_" d="M420.94,285.78l-115.33-66.59v-27.38l115.33,66.59l115.33-66.59v133.17
			c-38.44,22.2-76.89,44.39-115.33,66.59c-38.44-22.2-76.89-44.39-115.33-66.59V297.6l115.33,66.59l91.62-52.9l0-78.41
			L420.94,285.78z"/>
	</defs>
	<clipPath id="SVGID_5_">
		<use xlink:href="#SVGID_4_"  style="overflow:visible;"/>
	</clipPath>
	
		<linearGradient id="SVGID_6_" gradientUnits="userSpaceOnUse" x1="0.09" y1="594.7756" x2="0.91" y2="594.7756" gradientTransform="matrix(-230.6642 0 0 -199.7609 536.277 119104.5859)">
		<stop  offset="0" style="stop-color:#ECC400"/>
		<stop  offset="0.43" style="stop-color:#ECC400"/>
		<stop  offset="0.68" style="stop-color:#D78A00"/>
		<stop  offset="1" style="stop-color:#CC6406"/>
	</linearGradient>
	<rect x="305.61" y="191.81" class="st2" width="230.66" height="199.76"/>
</g>
<path class="st3" d="M571.88,455.56c2.16,0,3.11,0.79,3.11,2.08v8.15c0,1.29-0.96,2.08-3.11,2.08h-3.11v-12.32H571.88z
	 M571.88,469.86c4.1,0,5.46-1.73,5.46-3.69v-8.91c0-1.96-1.37-3.69-5.46-3.69h-5.01c-0.31,0-0.43,0.14-0.43,0.48v15.33
	c0,0.31,0.1,0.48,0.38,0.48H571.88z M540.65,460.37c-0.34,0-0.46,0.12-0.46,0.46v1.03c0,0.34,0.12,0.46,0.46,0.46h2.01
	c2.16,0,2.8,0.7,2.8,2.01v1.75c0,1.29-0.77,2.04-2.85,2.04s-2.88-0.74-2.88-2.04v-0.31c0-0.31-0.12-0.46-0.43-0.46h-1.41
	c-0.31,0-0.43,0.14-0.43,0.46v0.62c0,1.96,1.15,3.67,5.18,3.67c4,0,5.13-1.65,5.13-3.59v-2.42c0-1.29-0.46-2.28-2.13-2.76
	c1.53-0.43,1.96-1.29,1.96-2.59v-1.73c0-1.94-1.01-3.59-4.98-3.59c-4.03,0-5.03,1.7-5.03,3.67v0.62c0,0.31,0.1,0.46,0.43,0.46h1.39
	c0.31,0,0.46-0.14,0.46-0.46v-0.31c0-1.29,0.65-2.04,2.73-2.04c2.06,0,2.68,0.74,2.68,2.04v1.01c0,1.32-0.65,2.01-2.78,2.01H540.65z
	 M508.91,454.02c0-0.31-0.12-0.46-0.43-0.46h-1.41c-0.22,0-0.34,0.05-0.41,0.22l-4.07,9.7c-0.17,0.41-0.5,1.32-0.53,1.41
	c-0.02-0.1-0.34-1.03-0.5-1.44l-4.15-9.63c-0.07-0.17-0.19-0.26-0.41-0.26h-1.34c-0.31,0-0.43,0.14-0.43,0.46v15.38
	c0,0.31,0.12,0.46,0.43,0.46H497c0.31,0,0.43-0.14,0.43-0.46v-10.95c0.02,0.07,0.22,0.91,0.46,1.44l2.97,7.02
	c0.12,0.29,0.26,0.48,0.57,0.48h1.25c0.29,0,0.48-0.17,0.6-0.48l2.78-6.73c0.22-0.55,0.53-1.65,0.58-1.77v11
	c0,0.31,0.12,0.46,0.43,0.46h1.41c0.31,0,0.43-0.14,0.43-0.46V454.02z M476.51,469.86c0.31,0,0.46-0.12,0.46-0.46v-1.1
	c0-0.34-0.14-0.43-0.46-0.43h-6.57v-5.53h5.87c0.34,0,0.48-0.14,0.48-0.46v-1.03c0-0.34-0.14-0.46-0.48-0.46h-5.87v-4.84h6.3
	c0.31,0,0.46-0.12,0.46-0.46v-1.08c0-0.34-0.14-0.46-0.46-0.46h-8.19c-0.31,0-0.43,0.14-0.43,0.48v15.33c0,0.34,0.12,0.48,0.43,0.48
	H476.51z M443.92,461.71c-0.31,0-0.46,0.12-0.46,0.43v1.1c0,0.34,0.14,0.46,0.46,0.46h2.85v2.3c0,1.29-0.86,2.06-3,2.06
	c-2.16,0-2.97-0.79-2.97-2.08v-8.53c0-1.29,0.81-2.08,2.97-2.08c2.16,0,3,0.79,3,2.08v0.67c0,0.31,0.12,0.46,0.46,0.46h1.39
	c0.31,0,0.43-0.14,0.43-0.46v-1.05c0-1.96-1.17-3.69-5.3-3.69s-5.3,1.73-5.3,3.69v9.3c0,1.96,1.17,3.69,5.3,3.69s5.3-1.73,5.3-3.69
	v-4.22c0-0.31-0.14-0.43-0.46-0.43H443.92z M417.33,463.82h-4.03l1.37-4.41c0.31-1.03,0.62-3.23,0.67-3.45
	c0.02,0.26,0.36,2.61,0.65,3.5L417.33,463.82z M414.64,453.57c-0.31,0-0.48,0.14-0.58,0.46l-4.65,15.38
	c-0.1,0.29,0.02,0.46,0.34,0.46h1.39c0.31,0,0.46-0.17,0.53-0.46l1.1-3.71h5.06l1.13,3.71c0.07,0.29,0.22,0.46,0.53,0.46h1.51
	c0.34,0,0.46-0.17,0.36-0.46l-4.65-15.38c-0.1-0.31-0.26-0.46-0.57-0.46H414.64z M386.46,454.05c0-0.34-0.12-0.48-0.43-0.48h-1.46
	c-0.34,0-0.46,0.14-0.46,0.48v15.33c0,0.31,0.12,0.48,0.38,0.48h8.1c0.31,0,0.46-0.12,0.46-0.46v-1.1c0-0.34-0.14-0.43-0.46-0.43
	h-6.13V454.05z M365.4,469.86c0.31,0,0.46-0.12,0.46-0.46v-1.1c0-0.34-0.14-0.43-0.46-0.43h-6.57v-5.53h5.87
	c0.34,0,0.48-0.14,0.48-0.46v-1.03c0-0.34-0.14-0.46-0.48-0.46h-5.87v-4.84h6.3c0.31,0,0.46-0.12,0.46-0.46v-1.08
	c0-0.34-0.14-0.46-0.46-0.46h-8.19c-0.31,0-0.43,0.14-0.43,0.48v15.33c0,0.34,0.12,0.48,0.43,0.48H365.4z M332.22,455.56
	c2.16,0,3.12,0.79,3.12,2.08v8.15c0,1.29-0.96,2.08-3.12,2.08h-3.11v-12.32H332.22z M332.22,469.86c4.1,0,5.46-1.73,5.46-3.69v-8.91
	c0-1.96-1.37-3.69-5.46-3.69h-5.01c-0.31,0-0.43,0.14-0.43,0.48v15.33c0,0.31,0.1,0.48,0.38,0.48H332.22z M305.59,465.98
	c0,1.29-0.96,2.08-3.11,2.08c-2.13,0-3.09-0.79-3.09-2.08v-8.53c0-1.29,0.96-2.08,3.09-2.08c2.16,0,3.11,0.79,3.11,2.08V465.98z
	 M297.04,466.36c0,1.96,1.34,3.69,5.44,3.69c4.12,0,5.46-1.73,5.46-3.69v-9.3c0-1.96-1.34-3.69-5.46-3.69
	c-4.1,0-5.44,1.73-5.44,3.69V466.36z M278.23,454.02c0-0.31-0.12-0.46-0.43-0.46h-1.41c-0.22,0-0.34,0.05-0.41,0.22l-4.07,9.7
	c-0.17,0.41-0.5,1.32-0.53,1.41c-0.02-0.1-0.34-1.03-0.5-1.44l-4.15-9.63c-0.07-0.17-0.19-0.26-0.41-0.26h-1.34
	c-0.31,0-0.43,0.14-0.43,0.46v15.38c0,0.31,0.12,0.46,0.43,0.46h1.34c0.31,0,0.43-0.14,0.43-0.46v-10.95
	c0.02,0.07,0.22,0.91,0.46,1.44l2.97,7.02c0.12,0.29,0.26,0.48,0.57,0.48H272c0.29,0,0.48-0.17,0.6-0.48l2.78-6.73
	c0.22-0.55,0.53-1.65,0.58-1.77v11c0,0.31,0.12,0.46,0.43,0.46h1.41c0.31,0,0.43-0.14,0.43-0.46V454.02z"/>
<path class="st3" d="M612.06,427.43c0-8.99,4.44-13.49,13.33-13.49c8.74,0,13.12,4.5,13.12,13.49c0,8.94-4.38,13.41-13.12,13.41
	C616.9,440.84,612.45,436.37,612.06,427.43 M617.17,427.32c0,6.17,2.74,9.25,8.22,9.25c5.34,0,8.01-3.08,8.01-9.25
	c0-6.07-2.67-9.11-8.01-9.11C619.9,418.21,617.17,421.25,617.17,427.32z M607.28,414.12v4.27h-7.61v22.27h-4.92v-22.27h-7.61v-4.27
	H607.28z M557.79,440.66v-26.54h4.91l14.01,19.34v-19.34h4.73v26.54h-4.92l-14-19.74v19.74H557.79z M550.07,414.12v4.23h-13.29v6.68
	h12.65v4.4h-12.71v6.95h13.6v4.27H531.9v-26.54H550.07z M495.58,440.66v-26.54h5.1l9,20.13l8.82-20.13h4.91v26.54h-4.55v-18.48
	l-7.2,18.48h-4.19l-7.35-18.48v18.48H495.58z M466.4,440.66h-5.05l11.27-26.54h5.29l11.5,26.54h-5.29l-3.03-7.24h-8.81l1.68-4.26
	h5.35l-4.17-9.97L466.4,440.66z M436.17,440.62v-26.5h12.06c5.42,0,8.13,2.38,8.13,7.11c0,3.2-2.11,5.85-6.33,7.95l8.4,11.47h-6.19
	l-8.08-11.56v-2.25c4.7-0.8,7.05-2.63,7.05-5.47c0-1.96-1.1-2.93-3.3-2.93h-6.74v22.17H436.17z M428.61,439.55
	c-2.29,0.87-4.88,1.3-7.79,1.3c-9.53,0-14.29-4.6-14.29-13.82c0-8.72,4.76-13.08,14.29-13.08c2.91,0,5.5,0.44,7.79,1.3v4.45
	c-2.29-0.99-4.76-1.48-7.42-1.48c-6.36,0-9.55,2.94-9.55,8.82c0,6.37,3.19,9.55,9.55,9.55c2.66,0,5.14-0.49,7.42-1.48V439.55z
	 M378.28,440.66h-5.05l11.27-26.54h5.29l11.5,26.54H396l-3.03-7.24h-8.81l1.68-4.26h5.35l-4.17-9.97L378.28,440.66z M348.42,439.55
	v-4.45c2.66,0.99,5.67,1.48,9.02,1.48c4.07,0,6.11-1.36,6.11-4.08c0-1.98-1.25-2.97-3.75-2.97h-4.15c-5.43,0-8.14-2.47-8.14-7.42
	c0-5.44,3.86-8.16,11.6-8.16c2.97,0,5.78,0.44,8.44,1.3v4.45c-2.66-0.99-5.47-1.48-8.44-1.48c-4.45,0-6.68,1.3-6.68,3.9
	c0,1.98,1.08,2.97,3.23,2.97h4.15c5.78,0,8.66,2.48,8.66,7.42c0,5.57-3.67,8.35-11.02,8.35
	C354.09,440.84,351.08,440.41,348.42,439.55z M305.47,439.55v-4.45c2.66,0.99,5.67,1.48,9.02,1.48c4.07,0,6.11-1.36,6.11-4.08
	c0-1.98-1.25-2.97-3.75-2.97h-4.15c-5.43,0-8.14-2.47-8.14-7.42c0-5.44,3.86-8.16,11.6-8.16c2.97,0,5.78,0.44,8.44,1.3v4.45
	c-2.66-0.99-5.47-1.48-8.44-1.48c-4.45,0-6.68,1.3-6.68,3.9c0,1.98,1.08,2.97,3.23,2.97h4.15c5.78,0,8.66,2.48,8.66,7.42
	c0,5.57-3.67,8.35-11.02,8.35C311.14,440.84,308.13,440.41,305.47,439.55z M297.45,414.12v26.54h-4.91v-26.54H297.45z
	 M263.35,440.66h-5.05l11.27-26.54h5.29l11.5,26.54h-5.29l-3.03-7.24h-8.81l1.68-4.26h5.35l-4.17-9.97L263.35,440.66z
	 M229.23,440.66v-26.54h4.91v10.95h13.08v-10.95h4.92v26.54h-4.92v-11.32h-13.08v11.32H229.23z M223.52,414.12v4.27h-7.61v22.27
	h-4.92v-22.27h-7.61v-4.27H223.52z"/>
</svg>
