<?xml version="1.0" encoding="utf-8"?>
<!-- Generator: Adobe Illustrator 23.0.2, SVG Export Plug-In . SVG Version: 6.00 Build 0)  -->
<svg version="1.1" id="Camada_1" xmlns="http://www.w3.org/2000/svg" xmlns:xlink="http://www.w3.org/1999/xlink" x="0px" y="0px"
	viewBox="300 150 250 297.64" xml:space="preserve">
<style type="text/css">
	.st0{clip-path:url(#SVGID_2_);fill:url(#SVGID_3_);}
	.st1{fill-rule:evenodd;clip-rule:evenodd;fill:#ECC400;}
	.st2{clip-path:url(#SVGID_5_);fill:url(#SVGID_6_);}
</style>
<g>
	<defs>
		<path id="SVGID_1_" d="M305.61,231.05c0,0,105.66-61,115.33-66.59l91.62,52.9l-23.71,13.69l-56.05-32.36v80.44l-11.86,6.85
			l-11.86-6.85v-80.44l-79.76,46.05L305.61,231.05z"/>
	</defs>
	<clipPath id="SVGID_2_">
		<use xlink:href="#SVGID_1_"  style="overflow:visible;"/>
	</clipPath>
	
		<linearGradient id="SVGID_3_" gradientUnits="userSpaceOnUse" x1="0.15" y1="594.7756" x2="0.85" y2="594.7756" gradientTransform="matrix(206.9512 0 0 121.5139 305.6128 -72048.2734)">
		<stop  offset="0" style="stop-color:#ECC400"/>
		<stop  offset="0.43" style="stop-color:#ECC400"/>
		<stop  offset="0.68" style="stop-color:#D78A00"/>
		<stop  offset="1" style="stop-color:#CC6406"/>
	</linearGradient>
	<rect x="305.61" y="164.46" class="st0" width="206.95" height="121.51"/>
</g>
<polygon class="st1" points="371.23,326.34 329.33,350.53 305.61,336.84 347.65,312.57 "/>
<g>
	<defs>
		<path id="SVGID_4_" d="M420.94,325.02l-115.33-66.59v-27.38l115.33,66.59l115.33-66.59v133.17
			c-38.44,22.2-76.89,44.39-115.33,66.59c-38.44-22.2-76.89-44.39-115.33-66.59v-27.38l115.33,66.59l91.62-52.9l0-78.41
			L420.94,325.02z"/>
	</defs>
	<clipPath id="SVGID_5_">
		<use xlink:href="#SVGID_4_"  style="overflow:visible;"/>
	</clipPath>
	
		<linearGradient id="SVGID_6_" gradientUnits="userSpaceOnUse" x1="0.09" y1="594.7756" x2="0.91" y2="594.7756" gradientTransform="matrix(-230.6642 0 0 -199.7609 536.277 119143.8203)">
		<stop  offset="0" style="stop-color:#ECC400"/>
		<stop  offset="0.43" style="stop-color:#ECC400"/>
		<stop  offset="0.68" style="stop-color:#D78A00"/>
		<stop  offset="1" style="stop-color:#CC6406"/>
	</linearGradient>
	<rect x="305.61" y="231.05" class="st2" width="230.66" height="199.76"/>
</g>
</svg>
